# xmcd CD database file
#
# Track frame offsets:
#	150
#	13914
#	27838
#	41484
#	56032
#	70476
#	82506
#	96747
#	110632
#	125843
#	141891
#	156696
#	169659
#	183584
#	196213
#	209937
#	224133
#	240467
#	257089
#	269098
#	281143
#	294015
#
# Disc length: 4097 seconds
#
# Revision: 0
# Processed by: cddbd v1.5.2PL0 Copyright (c) Steve Scherf et al.
# Submitted via: CDex 1.51
#
DISCID=6a0fff16
DTITLE=Teodoro and Sampaio - Bailão do Teodoro and Teodoro
DYEAR=2007
DGENRE=Country
TTITLE0=Bão demais da conta
TTITLE1=Namorada do carinha
TTITLE2=Mulher chorona
TTITLE3=Bate a bota no chão
TTITLE4=Gostosona
TTITLE5=Garanhão da madrugada
TTITLE6=Se a casa cair
TTITLE7=Alô mulherada
TTITLE8=Louco por mulher
TTITLE9=Toco de saia
TTITLE10=Coração blindado
TTITLE11=Fogo no facho
TTITLE12=Mulher boa
TTITLE13=É mentira dela
TTITLE14=Roela do Eno
TTITLE15=Peão azarado
TTITLE16=Anna Julia
TTITLE17=O tocador
TTITLE18=Aqui pra ela
TTITLE19=Aconteceu comigo
TTITLE20=Furdunço no piseiro
TTITLE21=Só tô comendo
EXTD=YEAR: 2007
EXTT0=
EXTT1=
EXTT2=
EXTT3=
EXTT4=
EXTT5=
EXTT6=
EXTT7=
EXTT8=
EXTT9=
EXTT10=
EXTT11=
EXTT12=
EXTT13=
EXTT14=
EXTT15=
EXTT16=
EXTT17=
EXTT18=
EXTT19=
EXTT20=
EXTT21=
PLAYORDER=
